<?xml version="1.0" encoding="utf-8"?>
<!-- Generator: Adobe Illustrator 26.0.3, SVG Export Plug-In . SVG Version: 6.00 Build 0)  -->
<svg version="1.1" id="Layer_1" xmlns="http://www.w3.org/2000/svg" xmlns:xlink="http://www.w3.org/1999/xlink" x="0px" y="0px"
	 viewBox="0 0 158.3 182.3" style="enable-background:new 0 0 158.3 182.3;" xml:space="preserve">
<style type="text/css">
	.st0{fill:#FFFFFF;}
	.st1{fill:url(#SVGID_1_);}
	.st2{fill:#3E4F8A;}
</style>
<g>
	<path class="st0" d="M110.5,84.8c0,1.6-1.3,2.9-2.9,2.9H50.7c-1.6,0-2.9-1.3-2.9-2.9V28.9c0-1.6,1.3-2.9,2.9-2.9h56.9
		c1.6,0,2.9,1.3,2.9,2.9V84.8z"/>
	<g>
		<linearGradient id="SVGID_1_" gradientUnits="userSpaceOnUse" x1="79.1706" y1="26.3812" x2="79.1706" y2="88.0155">
			<stop  offset="0" style="stop-color:#4E64A0"/>
			<stop  offset="1" style="stop-color:#3D5193"/>
		</linearGradient>
		<path class="st1" d="M110.5,84.8V28.9c0-1.6-1.3-2.9-2.9-2.9h-5.1H55.8h-5.1c-1.6,0-2.8,1.3-2.9,2.8v50.8l0,5.1
			c0,1.6,1.3,2.9,2.9,2.9h31.6V63h-8.2v-8.5h8.2v-9.3c0-5.5,5-9.3,9.1-9.3h9.1v7.8h-4.2c-2.1,0-4.8,1.7-4.8,3.8v7h8.2V63h-8.2v24.7
			h11h5.1C109.2,87.7,110.5,86.4,110.5,84.8z"/>
		<path class="st2" d="M107.6,88.1H91.1V62.6h8.2v-7.8h-8.2v-7.4c0-2.2,2.9-4.1,5.2-4.1h3.9v-7h-8.8c-3.6,0-8.7,3.4-8.7,8.9v9.6
			h-8.2v7.8h8.2v25.5h-32c-1.8,0-3.2-1.4-3.2-3.2l0-55.9c0-1.8,1.4-3.2,3.2-3.2h56.9c1.8,0,3.2,1.4,3.2,3.2v55.9
			C110.8,86.6,109.4,88.1,107.6,88.1z M91.8,87.3h15.8c1.4,0,2.5-1.1,2.5-2.5V28.9c0-1.4-1.1-2.5-2.5-2.5H50.7
			c-1.4,0-2.5,1.1-2.5,2.5l0,55.9c0,1.4,1.1,2.5,2.5,2.5H82v-24h-8.2v-9.2H82v-8.9c0-5.5,5-9.6,9.4-9.6h9.5V44h-4.6
			c-2,0-4.5,1.6-4.5,3.4v6.7h8.2v9.2h-8.2V87.3z"/>
	</g>
</g>
</svg>
