<svg id="Layer_1" data-name="Layer 1" xmlns="http://www.w3.org/2000/svg" width="323" height="197.61" viewBox="0 0 323 197.61">
  <defs>
    <style>
      .cls-1 {
        fill: #2c61ab;
      }

      .cls-2, .cls-3 {
        fill: none;
        stroke-miterlimit: 10;
      }

      .cls-2 {
        stroke: #fff;
        stroke-width: 0.5px;
      }

      .cls-3 {
        stroke: #dadada;
      }

      .cls-4 {
        fill: #ba1c1c;
      }

      .cls-5 {
        fill: #fff;
      }
    </style>
  </defs>
  <g id="logo">
    <g>
      <path class="cls-1" d="M.55,38.18s172-71.4,321.9-17.3V80S79.55,89.88.55,195.68V38.18Z"/>
      <path class="cls-2" d="M.25,196.78V38l.2-.1c.4-.2,43.8-18,104.8-29C141.15,2.48,176-.42,209,.38c41.2,1,79.4,7.8,113.6,20.2l.2.1v59.7h-.3c-.6,0-61.5,2.7-131.3,18.1-41,9.1-76.9,20.8-106.8,34.8-37.4,17.5-65.5,38.5-83.5,62.6ZM1,38.48v156.2c18.1-23.8,46-44.7,83.1-62,30-14,66-25.7,107-34.9,67.2-14.9,126.1-17.9,131-18.1V21.18c-34.1-12.3-72.2-19-113.2-20.1-32.9-.8-67.7,2.1-103.6,8.4C46.55,20.18,4.25,37.08,1,38.48Z"/>
      <path class="cls-3" d="M20.55,176.08l-1.1-.9c.1-.2,13.8-18.1,56-38.7,70.4-34.2,164.9-49.3,231.8-55.9l.1,1.4c-66.7,6.6-161,21.6-231.2,55.7C34.25,158.18,20.65,176,20.55,176.08Z"/>
    </g>
    <g>
      <path class="cls-4" d="M71.65,60.68c1.9,13,3.2,26.6,7.1,39.2.1.1-.1.3-.3.4-4.4,1.7-6.6,2.5-11.1,4.3-1.2.5-2.4.3-2.6-.5a200.85,200.85,0,0,1-3.1-20.4c-.3-2.3-3.4-1.6-3.7.8-1.1,8.4-2.1,16.7-3.7,25.1a.45.45,0,0,1-.4.3c-4.4,1.8-6.6,2.7-10.9,4.5-.8.3-1.5.3-1.8-.1-3.6-6.2-5.3-13.1-7.2-19.9-.6-2.3-3.7-.7-3.6,2,.2,7.5.3,15.1,1,22.7,0,.1-.1.3-.4.5-4.5,1.9-6.7,2.9-10.8,4.7-.7.3-1.2.1-1.3-.4-1-18.8-.3-37.8-.1-56.7h0a4.92,4.92,0,0,1,2.5-4.4c11.8-5,23.7-9.9,35.6-14.6.6-.2-11.2,8.3-15.2,11.2a8,8,0,0,0-2.9,8.3c1.8,7.1,2.7,11,4.7,18.1.7,2.5,3.9,1.2,4.3-1.6,1.2-8.7,2.5-17.4,3.6-26.2,0,0-.3-2.5,4.4-5.4a117,117,0,0,1,30.8-13.4c32.6-9.1,100.7-19.2,100.7-19.2s-38.1,7.5-56,14.5a444,444,0,0,0-54,18h0c-.2-.2-5.9,2.5-5.6,8.2Z"/>
      <path class="cls-4" d="M117.35,82.88c-3.2,1.2-4.9,1.8-9,3.3h0v-.1c-.4-1.4-2.5-1.6-3.6-.2a10,10,0,0,1-1.4,1.5,17.13,17.13,0,0,1-6.2,3.5c-3.6,1.4-6.8,1.7-9.5.8s-4.5-3.4-5.4-8c-1.3-6.6-2.5-13.4-3.6-20.1a4.63,4.63,0,0,1,2.9-5.1c3.7-1.1,5.5-1.6,9.1-2.7.2-.1.4.1.4.3q1.8,9.9,3.9,19.8c.5,2.2,1.2,3.5,2.1,4.1a3.84,3.84,0,0,0,3.5.1,5.68,5.68,0,0,0,3.2-2.9c.6-1.4.6-3.7,0-6.8-1.3-6.6-1.9-10.1-3.2-16.9-.1-.2.1-.4.3-.5,4.6-1.2,6.8-1.8,11.2-2.8.2-.1.3.1.3.3,1.5,10.7,2.9,21.4,5.1,32C117.55,82.68,117.45,82.88,117.35,82.88Z"/>
      <path class="cls-4" d="M121.05,73.08c2.7-1.2,7.1-2.9,11.8-4.6h0a4.7,4.7,0,0,0,2.7,2.2,9,9,0,0,0,4.2-.3,9.28,9.28,0,0,0,4.1-2.1,2.75,2.75,0,0,0,1-2q-.15-1.2-1.8-1.5a29,29,0,0,0-6,.3c-4.9.5-8.3.8-10.3.8a8.19,8.19,0,0,1-5.1-1.9,7.19,7.19,0,0,1-2.3-5.1,9.52,9.52,0,0,1,1.4-6.4,14.12,14.12,0,0,1,5.5-5,31.81,31.81,0,0,1,9.6-3.1,36,36,0,0,1,9.5-.8,12.78,12.78,0,0,1,5.2,1.8,12.41,12.41,0,0,1,3.6,3.9c.1.2,0,.4-.3.5-4.8,1.2-7.2,1.9-12.1,3.4h0a3.23,3.23,0,0,0-1.9-1.9,7.54,7.54,0,0,0-4-.2,5.65,5.65,0,0,0-3.3,1.5,2.48,2.48,0,0,0-.9,2.1,1.7,1.7,0,0,0,1.5,1.5,22.72,22.72,0,0,0,6-.3,44.78,44.78,0,0,1,10.2-.2,10,10,0,0,1,5.3,2.3,6.82,6.82,0,0,1,2.3,4.2,7.48,7.48,0,0,1-1.2,4.9,14.25,14.25,0,0,1-5.2,4.7c-2.5,1.5-6,2.7-10.6,4.1-6.5,1.9-11.4,2.9-14.5,2.5-3.3-.3-3.6-2.4-4.4-5.3Z"/>
      <path class="cls-4" d="M176.85,67.28c-4.9.8-7.3,1.2-12.3,2.2-.2.1-.3-.1-.4-.2-.7-10.1-1.1-20.2-1.5-30.3,0-.1-.1-1.5.1-1.6,5.1-.5,7.7-.8,12.7-1.2.2,0,.4.1.4.3-.3,2.8-.5,4.3-.8,7.3,0,1.8,2.7,2.5,3.8,1,1.8-2.3,2.7-3.4,4.5-5.5.1-.1.1-.1.3-.1,5.9-.5,8.8-.7,14.5-1.2.3,0,.5.3.3.4-3.4,4.2-5.1,6.4-8.6,10.8a3,3,0,0,0,.3,4.2c4.7,4.4,7,6.4,11.5,10.2.2.1.1.4-.2.4-5.1.5-7.7.8-12.9,1.5a.37.37,0,0,1-.3-.1c-3.3-2.4-4.9-3.7-8.2-6.4-1.3-1-3.6-.1-3.5,1.4.2,2.7.3,4,.5,6.4A.37.37,0,0,1,176.85,67.28Z"/>
      <path class="cls-4" d="M201.05,51.38a12.65,12.65,0,0,1,4-10.6c3.1-2.9,7.4-4.5,13-4.9,6.4-.5,11.2.7,14.5,3.6a11.88,11.88,0,0,1,4.2,8.6A12.09,12.09,0,0,1,233,58c-2.8,2.7-6.9,4.3-12.6,4.8-5.1.5-9.2-.1-12.5-1.8C203.75,58.88,201.45,55.68,201.05,51.38Zm12.2-1.2c.2,2.3,1,4,2.2,4.9a5.74,5.74,0,0,0,4.5,1.2,5.42,5.42,0,0,0,4.1-2c1-1.2,1.4-2.9,1.2-5.3s-.9-3.9-2.1-4.9a6.08,6.08,0,0,0-4.4-1.3,5.4,5.4,0,0,0-4.2,2.1A7.28,7.28,0,0,0,213.25,50.18Z"/>
      <path class="cls-4" d="M253.05,59c-3.9.4-5.9.6-10,1-.1,0-.3-.1-.3-.2-.1-9.5.1-18.9.2-28.4a.32.32,0,0,1,.3-.3c4.1-.1,6.1-.1,10.1-.1a.27.27,0,0,1,.3.3c-.1,2.7-.3,4-.4,6.6-.1,1.5,2.1,2.3,3.2,1a59.29,59.29,0,0,1,4.4-4.3c.1-.1.1-.1.2-.1,5,0,7.5,0,12.6.1.2,0,.3.2.2.3-3.5,3.7-5.1,5.6-8.4,9.6a2.56,2.56,0,0,0-.1,3.2c3.2,3.7,4.7,5.5,7.9,9a.27.27,0,0,1-.2.4c-4.2.3-6.4.5-10.5.9-.1,0-.1,0-.2-.1-1.9-2.1-2.9-3.2-4.8-5.4a2.17,2.17,0,0,0-3.6,1.1c-.3,2.1-.4,3.1-.6,5.1C253.25,58.88,253.25,59,253.05,59Z"/>
      <path class="cls-4" d="M296.55,56.38c0-.7-.1-1-.1-1.6h0a1.26,1.26,0,0,0-1.8-.4,15.25,15.25,0,0,1-2.9,1.4,22.15,22.15,0,0,1-6.6,1.2c-3.3.1-5.7-.3-7.3-1.4a5,5,0,0,1-2.3-4.5,5.56,5.56,0,0,1,2.1-4.2c1.3-1.2,3.6-2,7.1-2.6l8.1-1.4a6.11,6.11,0,0,0,1.3-.3h0c5.9-.7,2.3-2.7,2.3-2.7a5.16,5.16,0,0,0-2.9-.5,11.32,11.32,0,0,0-4.2.6,4.11,4.11,0,0,0-1.9,1.8h0c-4-.3-6-.4-9.9-.7-.2,0-.3-.1-.2-.3a10.13,10.13,0,0,1,1.8-3.1,9.91,9.91,0,0,1,3.4-2.1,17.67,17.67,0,0,1,4.3-.9,54.08,54.08,0,0,1,5.9-.3c3.4.1,6.2.2,8.4.5a13.33,13.33,0,0,1,5.1,1.6,4.31,4.31,0,0,1,2,2.4,5.26,5.26,0,0,1,.3,3c-.6,3.6-1,5.3-1.4,9.2a35.93,35.93,0,0,0-.3,4.7h0C302.55,56,300.55,56.08,296.55,56.38Zm-5.1-9.5a14.72,14.72,0,0,0-4.3,1.4,2.2,2.2,0,0,0-1,1.6,1.55,1.55,0,0,0,.8,1.6,4.25,4.25,0,0,0,2.5.5,9.94,9.94,0,0,0,3.4-.8c1.1-.5,2.2-1,2.4-1.7C296.05,46.38,291.45,46.88,291.45,46.88Z"/>
    </g>
    <g>
      <path class="cls-5" d="M74.45,64.38c1.9,13.4,3.2,27.2,7.1,40.1.1.1-.1.3-.3.4-5.1,2-7.6,2.9-12.9,5-.2.1-.5.1-.5-.1a204.93,204.93,0,0,1-3.4-22.2c-.3-2.4-3.4-1.7-3.6.8-1,8.6-2.1,17.1-3.6,25.7a.45.45,0,0,1-.3.3c-4.8,1.9-7.1,2.9-11.8,4.8-.2.1-.3.1-.4-.1-3.8-6.4-5.5-14-7.5-21.1-.6-2.4-3.6-.8-3.6,1.9.2,7.7.3,15.5,1,23.3a.91.91,0,0,1-.3.5c-4.9,2.1-7.2,3.1-11.6,5-.2.1-.3,0-.4-.1-1.2-19.5-.4-39-.1-58.5,0-.3-.1-3.4.1-3.4,12.5-5.3,25-10.5,37.6-15.4.6-.1-11,8.2-15,11.1-2.3,1.6-3.6,5.3-2.9,8.4,1.8,7.3,2.7,11.2,4.7,18.5.7,2.5,3.9,1.3,4.3-1.6,1.2-8.8,2.4-17.7,3.5-26.6,0,0-.1-2.9,4.3-5.4,43.1-23.8,152.4-32.9,152.4-32.9s-52.6,6.8-77.6,15.1a421.24,421.24,0,0,0-53.6,17.9C79.75,55.78,74.15,58.48,74.45,64.38Z"/>
      <path class="cls-5" d="M121.75,88.18c-2.9,1.1-4.7,1.7-8.6,3.2h0v-.1c-.4-1.4-2.5-1.5-3.5-.2a19.2,19.2,0,0,1-1.4,1.5,16.91,16.91,0,0,1-6,3.4c-3.5,1.3-6.6,1.7-9.3.8s-4.5-3.4-5.4-7.9c-1.6-7.9-2.9-16-4.3-23.9a.38.38,0,0,1,.3-.5c4.9-1.5,7.4-2.3,12.1-3.6.2-.1.4.1.4.3,1.2,6.7,2.5,13.4,4,20.1.5,2.2,1.2,3.6,2.2,4.1a3.68,3.68,0,0,0,3.4.1,4.79,4.79,0,0,0,3-2.9c.6-1.4.5-3.6-.1-6.8-1.3-6.6-2-10.3-3.2-17.2-.1-.2.1-.4.3-.5,4.5-1.2,6.7-1.8,11-2.8.2-.1.3.1.3.3,1.4,10.8,2.7,21.6,5,32.3C122,88,122,88.08,121.75,88.18Z"/>
      <path class="cls-5" d="M125.85,78.28c4.7-2,7.1-2.9,11.7-4.6h0a4.7,4.7,0,0,0,2.7,2.2,8.56,8.56,0,0,0,4.1-.3,9.28,9.28,0,0,0,4.1-2.1,2.6,2.6,0,0,0,1-2q-.15-1.2-1.8-1.5a29,29,0,0,0-6,.3c-4.8.5-8.2.8-10.2.8a8.19,8.19,0,0,1-5.1-1.9,7.35,7.35,0,0,1-2.5-5.1,10.34,10.34,0,0,1,1.6-6.6,14.77,14.77,0,0,1,5.4-5.1,30.18,30.18,0,0,1,9.5-3.1,30.72,30.72,0,0,1,9.4-.7,11.51,11.51,0,0,1,5.2,1.9,14.07,14.07,0,0,1,3.6,4c.1.2,0,.4-.3.5-4.7,1.2-7.1,1.9-12,3.4h0a3.73,3.73,0,0,0-1.9-2,6.65,6.65,0,0,0-4-.2,6.35,6.35,0,0,0-3.3,1.5,2.48,2.48,0,0,0-.9,2.1,1.8,1.8,0,0,0,1.5,1.6,26.09,26.09,0,0,0,6-.2,37.8,37.8,0,0,1,10.1-.1,9.34,9.34,0,0,1,5.3,2.4,6.82,6.82,0,0,1,2.3,4.2,7.48,7.48,0,0,1-1.2,4.9,13.66,13.66,0,0,1-5.1,4.6,51.62,51.62,0,0,1-10.5,4c-6.4,1.8-11.4,2.9-14.4,2.5s-3.2-2.7-4.3-5.4Z"/>
      <path class="cls-5" d="M181.25,72.48c-4.8.8-7.3,1.2-12.2,2.2-.2.1-.3-.1-.4-.2-.8-10.2-1.2-20.4-1.6-30.7,0-.1-.1-1.6.1-1.6,5.1-.5,7.6-.8,12.7-1.2.2,0,.4.1.4.3-.3,2.9-.5,4.4-.8,7.4,0,1.8,2.7,2.5,3.8,1,1.8-2.3,2.7-3.4,4.5-5.6.1-.1.1-.1.3-.1,5.8-.5,8.7-.7,14.5-1.2.3,0,.5.3.3.5-3.4,4.3-5.1,6.6-8.5,11a3.21,3.21,0,0,0,.3,4.3c4.7,4.5,6.9,6.5,11.5,10.3.2.1.1.4-.2.4-5.1.5-7.7.8-12.9,1.5a.37.37,0,0,1-.3-.1c-3.2-2.4-4.9-3.7-8.1-6.4-1.3-1.1-3.6-.1-3.5,1.4.2,2.7.3,4,.6,6.4C181.55,72.38,181.45,72.48,181.25,72.48Z"/>
      <path class="cls-5" d="M205.15,56.58a12.75,12.75,0,0,1,4-10.8c3-3,7.4-4.7,12.9-5.1,6.4-.5,11.2.8,14.4,3.6a12.32,12.32,0,0,1,4.2,8.8,12.5,12.5,0,0,1-3.8,10.1c-2.7,2.7-6.8,4.3-12.5,4.8-5,.4-9.2-.1-12.5-1.8A11.43,11.43,0,0,1,205.15,56.58Zm12.2-1.1a7.37,7.37,0,0,0,2.2,5.1,5.62,5.62,0,0,0,4.4,1.2,5.36,5.36,0,0,0,4.1-2.1c1-1.2,1.4-3,1.2-5.5-.2-2.3-.9-4-2.1-5a6,6,0,0,0-4.3-1.4,5.72,5.72,0,0,0-4.2,2.1A7.61,7.61,0,0,0,217.35,55.48Z"/>
      <path class="cls-5" d="M256.75,64.48l-9.9,1a.32.32,0,0,1-.3-.3c-.1-9.7,0-19.2.1-28.9a.32.32,0,0,1,.3-.3c4-.1,6.1-.1,10.1-.1a.27.27,0,0,1,.3.3c-.1,2.7-.3,4-.4,6.8-.1,1.6,2,2.3,3.2,1.1,1.7-1.8,2.6-2.7,4.3-4.5.1-.1.1-.1.2-.1h12.5c.2,0,.3.2.2.3-3.4,3.8-5.1,5.8-8.3,9.8a2.56,2.56,0,0,0-.1,3.2c3.2,3.8,4.7,5.5,7.9,9.2a.27.27,0,0,1-.2.4c-4.2.3-6.3.5-10.5.9-.1,0-.1,0-.2-.1-1.9-2.2-2.9-3.3-4.7-5.5a2.09,2.09,0,0,0-3.5,1.1c-.3,2.1-.4,3.2-.6,5.2C257,64.38,257,64.48,256.75,64.48Z"/>
      <path class="cls-5" d="M300,61.78a9.7,9.7,0,0,1-.1-1.7h0a1.26,1.26,0,0,0-1.8-.4,13.37,13.37,0,0,1-2.9,1.5,16.9,16.9,0,0,1-6.6,1.2c-3.2.1-5.6-.3-7.3-1.5a4.94,4.94,0,0,1-2.3-4.6,6.46,6.46,0,0,1,2-4.4c1.3-1.2,3.6-2.1,7-2.7,4-.8,6.8-1.2,8.1-1.4a4.22,4.22,0,0,0,1.2-.3h0c5.9-.8,2.3-2.8,2.3-2.8a5,5,0,0,0-2.9-.6,9.64,9.64,0,0,0-4.2.7,3.89,3.89,0,0,0-1.9,1.9h0c-4-.3-6-.4-9.8-.7-.1,0-.3-.1-.2-.3a10.74,10.74,0,0,1,1.8-3.2,9.91,9.91,0,0,1,3.4-2.1,17.28,17.28,0,0,1,4.2-1,54.08,54.08,0,0,1,5.9-.3,81.9,81.9,0,0,1,8.3.5,11.8,11.8,0,0,1,5.1,1.7,5,5,0,0,1,2,2.5,5.61,5.61,0,0,1,.3,3.1,68.06,68.06,0,0,0-1.3,9.5c-.1,1.9-.2,2.9-.3,4.9h0Zm-5.2-9.8a11.6,11.6,0,0,0-4.3,1.5,2.2,2.2,0,0,0-1,1.6,1.55,1.55,0,0,0,.8,1.6,3.61,3.61,0,0,0,2.5.5,9.94,9.94,0,0,0,3.4-.8c1.1-.5,2.2-1,2.4-1.8C299.35,51.58,294.75,52,294.75,52Z"/>
    </g>
  </g>
</svg>
