<?xml version="1.0" encoding="utf-8"?>
<!-- Generator: Adobe Illustrator 26.0.3, SVG Export Plug-In . SVG Version: 6.00 Build 0)  -->
<svg version="1.1" id="Layer_1" xmlns="http://www.w3.org/2000/svg" xmlns:xlink="http://www.w3.org/1999/xlink" x="0px" y="0px"
	 viewBox="0 0 100 100" style="enable-background:new 0 0 100 100;" xml:space="preserve">
<style type="text/css">
	.st0{fill:#DB0C0B;}
	.st1{fill:#E8EAED;}
</style>
<g>
	<g>
		<path class="st0" d="M95.1,50c0,24.9-20.2,45.1-45.1,45.1C25.1,95.1,4.9,74.9,4.9,50S25.1,4.9,50,4.9C74.9,4.9,95.1,25.1,95.1,50z
			"/>
	</g>
	<g>
		<g>
			<path class="st1" d="M76,59.8c0,4.5-3.7,8.2-8.2,8.2H32.2c-4.5,0-8.2-3.7-8.2-8.2V40.3c0-4.5,3.7-8.2,8.2-8.2h35.6
				c4.5,0,8.2,3.7,8.2,8.2V59.8z"/>
		</g>
		<g>
			<polygon class="st0" points="64,50 45.2,63.7 45.2,36.3 			"/>
		</g>
	</g>
</g>
</svg>
